<svg xmlns="http://www.w3.org/2000/svg" xmlns:xlink="http://www.w3.org/1999/xlink" width="256" zoomAndPan="magnify" viewBox="0 0 192 191.999996" height="256" preserveAspectRatio="xMidYMid meet" version="1.0"><defs><g/><clipPath id="f1f69a09aa"><path d="M 2.695312 2.695312 L 188.996094 2.695312 L 188.996094 189.898438 L 2.695312 189.898438 Z M 2.695312 2.695312 " clip-rule="nonzero"/></clipPath><clipPath id="431c269a0d"><path d="M 26.695312 2.695312 L 164.925781 2.695312 C 178.179688 2.695312 188.925781 13.441406 188.925781 26.695312 L 188.925781 165.679688 C 188.925781 178.933594 178.179688 189.679688 164.925781 189.679688 L 26.695312 189.679688 C 13.441406 189.679688 2.695312 178.933594 2.695312 165.679688 L 2.695312 26.695312 C 2.695312 13.441406 13.441406 2.695312 26.695312 2.695312 " clip-rule="nonzero"/></clipPath><clipPath id="d0fb629d4f"><path d="M 95 165 L 101 165 L 101 170.613281 L 95 170.613281 Z M 95 165 " clip-rule="nonzero"/></clipPath><clipPath id="165b6bbfe1"><path d="M 82 22.113281 L 113 22.113281 L 113 52 L 82 52 Z M 82 22.113281 " clip-rule="nonzero"/></clipPath><clipPath id="7d3d200de1"><path d="M 23 22.113281 L 172 22.113281 L 172 170.613281 L 23 170.613281 Z M 23 22.113281 " clip-rule="nonzero"/></clipPath></defs><g clip-path="url(#f1f69a09aa)"><g clip-path="url(#431c269a0d)"><path fill="#151f28" d="M 2.695312 2.695312 L 188.996094 2.695312 L 188.996094 189.898438 L 2.695312 189.898438 Z M 2.695312 2.695312 " fill-opacity="1" fill-rule="nonzero"/></g></g><g clip-path="url(#d0fb629d4f)"><path fill="#ffffff" d="M 95.207031 165.660156 L 100.140625 165.660156 L 100.140625 170.613281 L 95.207031 170.613281 Z M 95.207031 165.660156 " fill-opacity="1" fill-rule="nonzero"/></g><g clip-path="url(#165b6bbfe1)"><path fill="#ffffff" d="M 102.238281 31.886719 L 97.671875 22.113281 L 93.109375 31.886719 L 82.871094 33.449219 L 90.273438 41.070312 L 88.519531 51.8125 L 97.671875 46.738281 L 106.828125 51.8125 L 105.074219 41.070312 L 112.476562 33.449219 Z M 102.238281 31.886719 " fill-opacity="1" fill-rule="nonzero"/></g><g clip-path="url(#7d3d200de1)"><path fill="#ffffff" d="M 68.070312 44.386719 L 77.9375 44.386719 L 77.9375 24.585938 C 77.941406 23.902344 77.703125 23.316406 77.222656 22.828125 C 76.738281 22.347656 76.152344 22.109375 75.46875 22.113281 C 73.984375 22.113281 72.5 22.175781 71.019531 22.300781 C 69.539062 22.429688 68.066406 22.621094 66.605469 22.875 C 65.140625 23.128906 63.6875 23.445312 62.253906 23.828125 C 60.816406 24.207031 59.398438 24.648438 58 25.148438 C 56.597656 25.652344 55.222656 26.210938 53.875 26.832031 C 52.523438 27.453125 51.199219 28.132812 49.90625 28.867188 C 48.617188 29.601562 47.355469 30.390625 46.132812 31.234375 C 44.90625 32.078125 43.71875 32.972656 42.570312 33.917969 C 41.421875 34.863281 40.316406 35.859375 39.253906 36.898438 C 38.191406 37.941406 37.175781 39.027344 36.203125 40.15625 C 35.234375 41.285156 34.3125 42.453125 33.445312 43.664062 C 32.574219 44.871094 31.757812 46.113281 30.996094 47.394531 C 30.230469 48.671875 29.523438 49.984375 28.875 51.324219 C 28.222656 52.664062 27.632812 54.027344 27.097656 55.417969 C 26.5625 56.8125 26.089844 58.222656 25.679688 59.65625 C 25.265625 61.085938 24.914062 62.535156 24.625 63.996094 C 24.339844 65.457031 24.113281 66.929688 23.949219 68.410156 C 23.789062 69.894531 23.691406 71.378906 23.65625 72.871094 C 23.621094 74.359375 23.648438 75.847656 23.742188 77.335938 C 23.835938 78.824219 23.992188 80.304688 24.210938 81.78125 C 24.429688 83.253906 24.714844 84.714844 25.058594 86.164062 C 25.40625 87.617188 25.8125 89.046875 26.28125 90.460938 C 26.746094 91.878906 27.277344 93.269531 27.863281 94.640625 C 28.449219 96.007812 29.09375 97.347656 29.796875 98.664062 C 30.5 99.976562 31.257812 101.257812 32.070312 102.503906 C 32.882812 103.753906 33.746094 104.964844 34.664062 106.136719 C 35.578125 107.3125 36.542969 108.441406 37.558594 109.53125 C 38.570312 110.625 39.628906 111.667969 40.734375 112.667969 C 41.835938 113.664062 42.980469 114.613281 44.164062 115.515625 C 45.347656 116.414062 46.570312 117.261719 47.824219 118.058594 C 49.082031 118.851562 50.371094 119.589844 51.691406 120.273438 C 53.011719 120.957031 54.359375 121.585938 55.734375 122.152344 L 55.734375 126.0625 C 55.246094 126.0625 54.765625 126.109375 54.289062 126.203125 C 53.8125 126.300781 53.351562 126.441406 52.902344 126.628906 C 52.453125 126.8125 52.027344 127.042969 51.621094 127.3125 C 51.21875 127.585938 50.84375 127.890625 50.5 128.238281 C 50.15625 128.582031 49.851562 128.957031 49.578125 129.363281 C 49.308594 129.765625 49.082031 130.195312 48.894531 130.644531 C 48.710938 131.097656 48.570312 131.558594 48.476562 132.039062 C 48.378906 132.515625 48.332031 133 48.332031 133.488281 C 48.332031 133.972656 48.378906 134.457031 48.476562 134.9375 C 48.570312 135.414062 48.710938 135.878906 48.894531 136.328125 C 49.082031 136.777344 49.308594 137.207031 49.578125 137.613281 C 49.851562 138.015625 50.15625 138.394531 50.5 138.738281 C 50.84375 139.082031 51.21875 139.390625 51.621094 139.660156 C 52.027344 139.929688 52.453125 140.160156 52.902344 140.347656 C 53.351562 140.535156 53.8125 140.675781 54.289062 140.769531 C 54.765625 140.863281 55.246094 140.910156 55.734375 140.910156 L 55.734375 143.386719 C 55.246094 143.386719 54.765625 143.433594 54.289062 143.53125 C 53.8125 143.625 53.351562 143.765625 52.902344 143.953125 C 52.453125 144.140625 52.027344 144.367188 51.621094 144.636719 C 51.21875 144.910156 50.84375 145.21875 50.5 145.5625 C 50.15625 145.90625 49.851562 146.28125 49.578125 146.6875 C 49.308594 147.09375 49.082031 147.519531 48.894531 147.96875 C 48.710938 148.421875 48.570312 148.886719 48.476562 149.363281 C 48.378906 149.839844 48.332031 150.324219 48.332031 150.8125 C 48.332031 151.300781 48.378906 151.78125 48.476562 152.261719 C 48.570312 152.738281 48.710938 153.203125 48.894531 153.652344 C 49.082031 154.105469 49.308594 154.53125 49.578125 154.9375 C 49.851562 155.34375 50.15625 155.71875 50.5 156.0625 C 50.84375 156.40625 51.21875 156.714844 51.621094 156.984375 C 52.027344 157.257812 52.453125 157.484375 52.902344 157.671875 C 53.351562 157.859375 53.8125 158 54.289062 158.09375 C 54.765625 158.191406 55.246094 158.238281 55.734375 158.238281 L 57.238281 158.238281 C 57.609375 159.136719 58.046875 160.003906 58.542969 160.839844 C 59.042969 161.671875 59.601562 162.464844 60.214844 163.21875 C 60.832031 163.972656 61.5 164.675781 62.21875 165.328125 C 62.9375 165.980469 63.699219 166.578125 64.507812 167.117188 C 65.316406 167.660156 66.15625 168.136719 67.035156 168.554688 C 67.910156 168.96875 68.8125 169.320312 69.742188 169.601562 C 70.671875 169.882812 71.613281 170.097656 72.574219 170.238281 C 73.535156 170.382812 74.5 170.453125 75.46875 170.453125 C 76.441406 170.453125 77.40625 170.382812 78.363281 170.238281 C 79.324219 170.097656 80.269531 169.882812 81.199219 169.601562 C 82.125 169.320312 83.027344 168.96875 83.90625 168.554688 C 84.785156 168.136719 85.625 167.660156 86.433594 167.117188 C 87.238281 166.578125 88.003906 165.980469 88.722656 165.328125 C 89.441406 164.675781 90.109375 163.972656 90.722656 163.21875 C 91.339844 162.464844 91.898438 161.671875 92.394531 160.839844 C 92.894531 160.003906 93.328125 159.136719 93.703125 158.238281 L 95.207031 158.238281 C 95.691406 158.238281 96.175781 158.191406 96.652344 158.09375 C 97.128906 158 97.589844 157.859375 98.039062 157.671875 C 98.488281 157.484375 98.914062 157.257812 99.320312 156.984375 C 99.722656 156.714844 100.097656 156.40625 100.441406 156.0625 C 100.785156 155.71875 101.089844 155.34375 101.359375 154.9375 C 101.628906 154.53125 101.859375 154.105469 102.042969 153.652344 C 102.230469 153.203125 102.371094 152.738281 102.464844 152.261719 C 102.558594 151.78125 102.609375 151.300781 102.609375 150.8125 C 102.609375 150.324219 102.558594 149.839844 102.464844 149.363281 C 102.371094 148.886719 102.230469 148.421875 102.042969 147.96875 C 101.859375 147.519531 101.628906 147.09375 101.359375 146.6875 C 101.089844 146.28125 100.785156 145.90625 100.441406 145.5625 C 100.097656 145.21875 99.722656 144.910156 99.320312 144.636719 C 98.914062 144.367188 98.488281 144.140625 98.039062 143.953125 C 97.589844 143.765625 97.128906 143.625 96.652344 143.53125 C 96.175781 143.433594 95.691406 143.386719 95.207031 143.386719 L 95.207031 140.910156 C 95.691406 140.910156 96.175781 140.863281 96.652344 140.769531 C 97.128906 140.675781 97.589844 140.535156 98.039062 140.347656 C 98.488281 140.160156 98.914062 139.929688 99.320312 139.660156 C 99.722656 139.390625 100.097656 139.082031 100.441406 138.738281 C 100.785156 138.394531 101.089844 138.015625 101.359375 137.613281 C 101.628906 137.207031 101.859375 136.777344 102.042969 136.328125 C 102.230469 135.878906 102.371094 135.414062 102.464844 134.9375 C 102.558594 134.457031 102.609375 133.972656 102.609375 133.488281 C 102.609375 133 102.558594 132.515625 102.464844 132.039062 C 102.371094 131.558594 102.230469 131.097656 102.042969 130.644531 C 101.859375 130.195312 101.628906 129.765625 101.359375 129.363281 C 101.089844 128.957031 100.785156 128.582031 100.441406 128.238281 C 100.097656 127.890625 99.722656 127.585938 99.320312 127.3125 C 98.914062 127.042969 98.488281 126.8125 98.039062 126.628906 C 97.589844 126.441406 97.128906 126.300781 96.652344 126.203125 C 96.175781 126.109375 95.691406 126.0625 95.207031 126.0625 L 95.207031 122.152344 C 98.691406 120.703125 101.980469 118.898438 105.074219 116.730469 C 105.609375 117.171875 106.167969 117.585938 106.746094 117.96875 C 107.324219 118.351562 107.921875 118.699219 108.539062 119.019531 C 109.15625 119.339844 109.785156 119.625 110.433594 119.878906 C 111.078125 120.132812 111.734375 120.347656 112.402344 120.53125 C 113.074219 120.714844 113.75 120.863281 114.433594 120.972656 C 115.117188 121.085938 115.804688 121.160156 116.5 121.199219 C 117.191406 121.238281 117.882812 121.242188 118.574219 121.207031 C 119.269531 121.171875 119.957031 121.101562 120.640625 120.996094 C 121.328125 120.886719 122.003906 120.746094 122.675781 120.566406 C 123.34375 120.386719 124.003906 120.175781 124.652344 119.925781 C 125.296875 119.675781 125.929688 119.394531 126.550781 119.078125 C 127.167969 118.765625 127.765625 118.417969 128.347656 118.039062 C 128.929688 117.660156 129.488281 117.25 130.027344 116.8125 C 130.566406 116.375 131.082031 115.910156 131.570312 115.417969 C 132.0625 114.925781 132.523438 114.410156 132.960938 113.867188 C 133.394531 113.328125 133.800781 112.765625 134.175781 112.179688 C 134.554688 111.597656 134.898438 110.992188 135.210938 110.375 C 135.523438 109.753906 135.804688 109.117188 136.050781 108.46875 C 136.296875 107.816406 136.507812 107.15625 136.683594 106.484375 C 136.863281 105.8125 137.003906 105.128906 137.109375 104.445312 C 137.214844 103.757812 137.285156 103.066406 137.316406 102.371094 C 137.347656 101.675781 137.347656 100.980469 137.304688 100.285156 C 137.265625 99.59375 137.1875 98.902344 137.078125 98.214844 C 136.964844 97.527344 136.816406 96.851562 136.632812 96.179688 C 136.449219 95.507812 136.230469 94.851562 135.976562 94.203125 C 135.722656 93.554688 135.4375 92.921875 135.117188 92.304688 C 134.796875 91.6875 134.445312 91.089844 134.066406 90.507812 C 133.683594 89.929688 133.269531 89.371094 132.828125 88.835938 C 132.386719 88.296875 131.921875 87.785156 131.425781 87.296875 C 130.929688 86.8125 130.410156 86.351562 129.867188 85.917969 C 129.324219 85.488281 128.761719 85.085938 128.175781 84.710938 C 127.589844 84.339844 126.988281 84 126.367188 83.691406 C 126.96875 80.519531 127.273438 77.316406 127.277344 74.085938 L 105.074219 74.085938 L 105.074219 69.136719 C 105.722656 68.886719 106.378906 68.660156 107.042969 68.449219 C 107.707031 68.242188 108.375 68.050781 109.046875 67.882812 C 109.722656 67.714844 110.398438 67.566406 111.082031 67.4375 C 111.765625 67.308594 112.453125 67.203125 113.140625 67.117188 C 113.832031 67.03125 114.523438 66.964844 115.214844 66.921875 C 115.910156 66.878906 116.605469 66.855469 117.296875 66.851562 C 117.992188 66.851562 118.6875 66.867188 119.382812 66.90625 C 120.074219 66.949219 120.765625 67.007812 121.457031 67.089844 C 122.148438 67.171875 122.832031 67.273438 123.515625 67.398438 C 124.203125 67.519531 124.878906 67.664062 125.554688 67.828125 C 126.230469 67.992188 126.902344 68.179688 127.566406 68.382812 C 128.230469 68.589844 128.886719 68.8125 129.535156 69.058594 C 130.1875 69.300781 130.828125 69.566406 131.464844 69.851562 C 132.097656 70.132812 132.726562 70.4375 133.339844 70.757812 C 133.957031 71.078125 134.5625 71.417969 135.160156 71.777344 C 135.757812 72.136719 136.339844 72.511719 136.914062 72.90625 C 137.488281 73.296875 138.046875 73.707031 138.597656 74.136719 C 139.144531 74.5625 139.679688 75.007812 140.203125 75.46875 C 140.726562 75.929688 141.234375 76.402344 141.726562 76.894531 C 142.21875 77.382812 142.699219 77.890625 143.160156 78.410156 C 143.625 78.929688 144.070312 79.460938 144.503906 80.007812 C 144.933594 80.554688 145.347656 81.113281 145.746094 81.6875 C 146.140625 82.257812 146.523438 82.84375 146.882812 83.4375 C 147.246094 84.03125 147.589844 84.636719 147.917969 85.253906 C 148.242188 85.867188 148.550781 86.492188 148.835938 87.128906 C 149.125 87.761719 149.394531 88.402344 149.644531 89.054688 C 149.894531 89.703125 150.125 90.363281 150.332031 91.027344 C 150.542969 91.691406 150.734375 92.359375 150.902344 93.035156 C 151.074219 93.710938 151.222656 94.394531 151.351562 95.078125 C 151.480469 95.761719 151.585938 96.453125 151.675781 97.144531 C 151.761719 97.835938 151.828125 98.527344 151.875 99.222656 C 151.921875 99.917969 151.945312 100.613281 151.949219 101.3125 L 151.949219 103.785156 C 151.949219 104.238281 152.0625 104.660156 152.292969 105.050781 L 164.851562 126.0625 L 154.417969 126.0625 C 154.089844 126.0625 153.773438 126.125 153.472656 126.25 C 153.167969 126.375 152.902344 126.554688 152.671875 126.785156 C 152.441406 127.019531 152.261719 127.285156 152.136719 127.589844 C 152.011719 127.894531 151.949219 128.207031 151.949219 128.535156 L 151.949219 143.386719 C 151.949219 143.714844 151.886719 144.03125 151.761719 144.335938 C 151.636719 144.636719 151.457031 144.90625 151.226562 145.136719 C 150.996094 145.371094 150.726562 145.546875 150.425781 145.671875 C 150.125 145.800781 149.808594 145.863281 149.480469 145.863281 L 129.746094 145.863281 C 129.441406 145.859375 129.148438 145.910156 128.863281 146.019531 C 128.582031 146.125 128.324219 146.277344 128.097656 146.480469 C 127.871094 146.679688 127.6875 146.914062 127.542969 147.183594 C 127.402344 147.453125 127.316406 147.738281 127.277344 148.039062 L 125.105469 165.660156 L 105.074219 165.660156 L 105.074219 170.613281 L 127.277344 170.613281 C 127.582031 170.613281 127.875 170.5625 128.160156 170.457031 C 128.441406 170.347656 128.699219 170.195312 128.925781 169.996094 C 129.152344 169.792969 129.335938 169.558594 129.480469 169.289062 C 129.621094 169.019531 129.710938 168.734375 129.746094 168.433594 L 131.917969 150.8125 L 149.480469 150.8125 C 149.96875 150.8125 150.449219 150.765625 150.925781 150.667969 C 151.402344 150.574219 151.867188 150.433594 152.3125 150.246094 C 152.761719 150.058594 153.191406 149.832031 153.59375 149.5625 C 153.996094 149.289062 154.371094 148.980469 154.714844 148.636719 C 155.058594 148.292969 155.367188 147.917969 155.636719 147.511719 C 155.90625 147.105469 156.132812 146.679688 156.320312 146.226562 C 156.503906 145.777344 156.644531 145.3125 156.742188 144.835938 C 156.835938 144.359375 156.882812 143.875 156.882812 143.386719 L 156.882812 131.011719 L 169.21875 131.011719 C 169.660156 131.011719 170.074219 130.898438 170.457031 130.675781 C 170.839844 130.453125 171.140625 130.148438 171.363281 129.761719 C 171.582031 129.375 171.6875 128.960938 171.683594 128.515625 C 171.679688 128.070312 171.566406 127.65625 171.339844 127.273438 L 156.882812 103.09375 L 156.882812 101.3125 C 156.882812 100.527344 156.859375 99.742188 156.8125 98.957031 C 156.765625 98.175781 156.695312 97.394531 156.601562 96.613281 C 156.511719 95.835938 156.394531 95.058594 156.253906 94.285156 C 156.117188 93.511719 155.953125 92.746094 155.769531 91.980469 C 155.585938 91.21875 155.378906 90.460938 155.148438 89.710938 C 154.917969 88.960938 154.667969 88.21875 154.394531 87.480469 C 154.121094 86.746094 153.824219 86.019531 153.507812 85.300781 C 153.191406 84.582031 152.855469 83.875 152.496094 83.175781 C 152.136719 82.480469 151.757812 81.792969 151.359375 81.117188 C 150.957031 80.441406 150.539062 79.78125 150.101562 79.128906 C 149.664062 78.480469 149.207031 77.84375 148.730469 77.21875 C 148.253906 76.597656 147.757812 75.988281 147.246094 75.394531 C 146.734375 74.800781 146.203125 74.222656 145.65625 73.664062 C 145.109375 73.101562 144.546875 72.554688 143.96875 72.027344 C 143.390625 71.5 142.796875 70.988281 142.1875 70.496094 C 141.578125 70.003906 140.953125 69.527344 140.316406 69.074219 C 139.679688 68.617188 139.027344 68.179688 138.363281 67.765625 C 137.703125 67.347656 137.027344 66.949219 136.339844 66.574219 C 135.652344 66.199219 134.957031 65.84375 134.25 65.507812 C 133.539062 65.171875 132.824219 64.859375 132.097656 64.566406 C 131.371094 64.273438 130.636719 64.003906 129.894531 63.753906 C 129.152344 63.507812 128.402344 63.28125 127.644531 63.078125 C 126.890625 62.875 126.128906 62.691406 125.363281 62.535156 C 124.59375 62.378906 123.824219 62.242188 123.050781 62.128906 C 122.277344 62.015625 121.5 61.929688 120.71875 61.863281 C 119.9375 61.796875 119.15625 61.753906 118.375 61.734375 C 117.59375 61.714844 116.808594 61.71875 116.027344 61.746094 C 115.246094 61.773438 114.464844 61.824219 113.6875 61.898438 C 112.90625 61.972656 112.132812 62.070312 111.359375 62.191406 C 110.585938 62.3125 109.816406 62.457031 109.050781 62.621094 C 108.285156 62.789062 107.527344 62.976562 106.773438 63.1875 C 106.019531 63.398438 105.273438 63.632812 104.53125 63.890625 C 104.371094 63.496094 104.179688 63.117188 103.953125 62.753906 C 103.730469 62.390625 103.476562 62.050781 103.191406 61.730469 C 102.90625 61.414062 102.597656 61.121094 102.265625 60.855469 C 101.929688 60.59375 101.578125 60.359375 101.203125 60.15625 C 100.828125 59.949219 100.441406 59.78125 100.035156 59.644531 C 99.632812 59.507812 99.222656 59.40625 98.800781 59.34375 C 98.378906 59.277344 97.957031 59.25 97.53125 59.257812 C 97.105469 59.265625 96.683594 59.308594 96.265625 59.390625 C 95.847656 59.472656 95.441406 59.589844 95.042969 59.742188 C 94.644531 59.894531 94.261719 60.078125 93.894531 60.296875 C 93.53125 60.515625 93.183594 60.761719 92.863281 61.039062 C 92.539062 61.316406 92.242188 61.621094 91.96875 61.949219 C 91.699219 62.277344 91.457031 62.628906 91.246094 63 C 91.035156 63.371094 90.859375 63.757812 90.714844 64.15625 C 90.566406 64.558594 90.460938 64.96875 90.386719 65.390625 C 90.3125 65.8125 90.273438 66.234375 90.273438 66.660156 L 90.273438 74.085938 L 75.46875 74.085938 L 75.46875 88.9375 L 82.871094 88.9375 C 83.355469 88.9375 83.839844 88.984375 84.316406 89.078125 C 84.792969 89.175781 85.253906 89.316406 85.703125 89.503906 C 86.152344 89.6875 86.578125 89.917969 86.984375 90.1875 C 87.386719 90.460938 87.761719 90.765625 88.105469 91.113281 C 88.449219 91.457031 88.753906 91.832031 89.023438 92.238281 C 89.296875 92.640625 89.523438 93.070312 89.710938 93.519531 C 89.894531 93.972656 90.035156 94.433594 90.128906 94.914062 C 90.226562 95.390625 90.273438 95.875 90.273438 96.363281 C 90.273438 96.847656 90.226562 97.332031 90.128906 97.8125 C 90.035156 98.289062 89.894531 98.753906 89.710938 99.203125 C 89.523438 99.652344 89.296875 100.082031 89.023438 100.488281 C 88.753906 100.890625 88.449219 101.269531 88.105469 101.613281 C 87.761719 101.957031 87.386719 102.265625 86.984375 102.535156 C 86.578125 102.804688 86.152344 103.035156 85.703125 103.222656 C 85.253906 103.410156 84.792969 103.550781 84.316406 103.644531 C 83.839844 103.738281 83.355469 103.785156 82.871094 103.785156 L 75.46875 103.785156 L 75.46875 126.0625 L 60.667969 126.0625 L 60.667969 120.46875 C 60.667969 119.949219 60.523438 119.480469 60.230469 119.054688 C 59.9375 118.625 59.546875 118.324219 59.0625 118.140625 C 56.84375 117.300781 54.699219 116.300781 52.628906 115.136719 C 50.5625 113.96875 48.589844 112.65625 46.71875 111.191406 C 44.847656 109.726562 43.097656 108.132812 41.46875 106.402344 C 39.835938 104.671875 38.34375 102.828125 36.992188 100.875 C 35.640625 98.917969 34.441406 96.871094 33.398438 94.734375 C 32.355469 92.597656 31.476562 90.390625 30.765625 88.121094 C 30.050781 85.851562 29.515625 83.539062 29.152344 81.1875 C 28.789062 78.832031 28.601562 76.46875 28.597656 74.085938 L 43.398438 74.085938 L 43.398438 81.511719 C 43.398438 82 43.445312 82.484375 43.539062 82.960938 C 43.636719 83.4375 43.777344 83.902344 43.960938 84.351562 C 44.148438 84.804688 44.375 85.230469 44.644531 85.636719 C 44.914062 86.042969 45.222656 86.417969 45.566406 86.761719 C 45.910156 87.105469 46.285156 87.414062 46.6875 87.6875 C 47.089844 87.957031 47.519531 88.183594 47.96875 88.371094 C 48.417969 88.558594 48.878906 88.699219 49.355469 88.792969 C 49.832031 88.890625 50.3125 88.9375 50.800781 88.9375 C 51.285156 88.9375 51.765625 88.890625 52.242188 88.792969 C 52.71875 88.699219 53.183594 88.558594 53.632812 88.371094 C 54.082031 88.183594 54.507812 87.957031 54.910156 87.6875 C 55.316406 87.414062 55.6875 87.105469 56.03125 86.761719 C 56.375 86.417969 56.683594 86.042969 56.953125 85.636719 C 57.222656 85.230469 57.453125 84.804688 57.636719 84.351562 C 57.824219 83.902344 57.964844 83.4375 58.058594 82.960938 C 58.152344 82.484375 58.199219 82 58.199219 81.511719 L 58.199219 74.085938 L 75.46875 74.085938 L 75.46875 59.238281 L 68.070312 59.238281 C 67.582031 59.238281 67.101562 59.191406 66.625 59.09375 C 66.148438 59 65.6875 58.859375 65.238281 58.671875 C 64.789062 58.484375 64.359375 58.257812 63.957031 57.984375 C 63.554688 57.714844 63.179688 57.40625 62.835938 57.0625 C 62.492188 56.71875 62.183594 56.34375 61.914062 55.9375 C 61.644531 55.53125 61.417969 55.105469 61.230469 54.652344 C 61.046875 54.203125 60.90625 53.738281 60.808594 53.261719 C 60.714844 52.78125 60.667969 52.300781 60.667969 51.8125 C 60.667969 51.324219 60.714844 50.839844 60.808594 50.363281 C 60.90625 49.886719 61.046875 49.421875 61.230469 48.96875 C 61.417969 48.519531 61.644531 48.09375 61.914062 47.6875 C 62.183594 47.28125 62.492188 46.90625 62.835938 46.5625 C 63.179688 46.21875 63.554688 45.910156 63.957031 45.636719 C 64.359375 45.367188 64.789062 45.140625 65.238281 44.953125 C 65.6875 44.765625 66.148438 44.625 66.625 44.53125 C 67.101562 44.433594 67.582031 44.386719 68.070312 44.386719 Z M 123.453125 93.539062 C 124.660156 94.464844 125.601562 95.609375 126.273438 96.976562 C 126.945312 98.34375 127.28125 99.789062 127.277344 101.3125 C 127.277344 101.960938 127.214844 102.605469 127.089844 103.242188 C 126.960938 103.882812 126.773438 104.5 126.527344 105.101562 C 126.277344 105.703125 125.976562 106.273438 125.617188 106.8125 C 125.253906 107.351562 124.847656 107.851562 124.386719 108.3125 C 123.929688 108.773438 123.429688 109.183594 122.894531 109.542969 C 122.355469 109.90625 121.785156 110.210938 121.1875 110.457031 C 120.589844 110.707031 119.972656 110.894531 119.335938 111.023438 C 118.699219 111.148438 118.058594 111.210938 117.410156 111.210938 C 115.773438 111.207031 114.234375 110.808594 112.796875 110.023438 C 117.402344 105.214844 120.957031 99.722656 123.453125 93.539062 Z M 75.46875 165.660156 C 74.171875 165.667969 72.898438 165.503906 71.644531 165.167969 C 70.390625 164.832031 69.199219 164.339844 68.078125 163.6875 C 66.957031 163.035156 65.9375 162.246094 65.023438 161.320312 C 64.109375 160.398438 63.332031 159.367188 62.691406 158.238281 L 88.25 158.238281 C 87.609375 159.367188 86.832031 160.398438 85.917969 161.320312 C 85.003906 162.246094 83.984375 163.035156 82.863281 163.6875 C 81.738281 164.339844 80.550781 164.832031 79.296875 165.167969 C 78.042969 165.503906 76.769531 165.667969 75.46875 165.660156 Z M 60.667969 140.910156 L 90.273438 140.910156 L 90.273438 143.386719 L 60.667969 143.386719 Z M 60.667969 140.910156 " fill-opacity="1" fill-rule="nonzero"/></g><g fill="#ffffff" fill-opacity="1"><g transform="translate(116.097996, 47.515113)"><g><path d="M 2.371094 0 L 29.648438 0 L 29.648438 -8.78125 L 26.023438 -8.78125 L 25.882812 -3.808594 L 10.410156 -3.808594 L 10.410156 -14.683594 L 25.234375 -14.683594 L 25.234375 -18.449219 L 10.410156 -18.449219 L 10.410156 -28.8125 L 25.1875 -28.8125 L 25.324219 -23.886719 L 28.949219 -23.886719 L 28.949219 -32.527344 L 2.464844 -32.527344 L 2.464844 -28.859375 L 6.414062 -28.859375 L 6.414062 -3.71875 L 2.371094 -3.71875 Z M 2.371094 0 "/></g></g></g><g fill="#ffffff" fill-opacity="1"><g transform="translate(148.112245, 47.515113)"><g><path d="M 31.273438 -4.367188 L 28.394531 -7.109375 C 25.976562 -4.695312 22.445312 -3.390625 19.238281 -3.390625 C 10.457031 -3.390625 6.414062 -9.527344 6.320312 -16.125 C 6.273438 -22.816406 10.457031 -29.136719 19.238281 -29.136719 C 21.609375 -29.136719 23.886719 -28.671875 25.976562 -27.371094 L 26.117188 -22.351562 L 29.742188 -22.351562 C 29.789062 -24.628906 29.832031 -26.953125 29.832031 -29.230469 C 26.765625 -31.691406 23.003906 -32.992188 19.238281 -32.992188 C 7.808594 -32.992188 2.183594 -24.628906 2.277344 -16.078125 C 2.324219 -7.433594 7.761719 0.464844 19.238281 0.464844 C 23.652344 0.464844 27.976562 -1.117188 31.273438 -4.367188 Z M 31.273438 -4.367188 "/></g></g></g></svg>